<mxfile host="65bd71144e">
    <diagram id="zBbb_w2fufU70cdOGtND" name="1 oldal">
        <mxGraphModel dx="1054" dy="1139" grid="1" gridSize="10" guides="1" tooltips="1" connect="1" arrows="1" fold="1" page="0" pageScale="1" pageWidth="660" pageHeight="610" background="none" math="0" shadow="0">
            <root>
                <mxCell id="0"/>
                <mxCell id="1" parent="0"/>
                <mxCell id="450" value="" style="rounded=0;whiteSpace=wrap;html=1;fillColor=#5E5B61;fontColor=#FFFFFF;strokeColor=none;spacing=0;" vertex="1" parent="1">
                    <mxGeometry width="480" height="610" as="geometry"/>
                </mxCell>
                <mxCell id="451" value="Reduced Divergence Reduction" style="text;strokeColor=none;fillColor=none;align=center;verticalAlign=middle;rounded=0;fontFamily=klavika;fontSize=17;fontColor=#FFFFFF;" vertex="1" parent="1">
                    <mxGeometry x="210" width="60" height="30" as="geometry"/>
                </mxCell>
                <mxCell id="452" value="" style="rounded=0;whiteSpace=wrap;html=1;fillColor=#C23555;fontColor=#FFFFFF;strokeColor=none;" vertex="1" parent="1">
                    <mxGeometry x="10" y="30" width="380" height="90" as="geometry"/>
                </mxCell>
                <mxCell id="453" value="&lt;font face=&quot;Klavika&quot; style=&quot;font-size: 17px;&quot;&gt;Shared&lt;/font&gt;" style="text;html=1;strokeColor=none;fillColor=none;align=center;verticalAlign=middle;whiteSpace=wrap;rounded=0;fontSize=17;fontColor=#FFFFFF;" vertex="1" parent="1">
                    <mxGeometry x="145" y="30" width="60" height="30" as="geometry"/>
                </mxCell>
                <mxCell id="454" value="" style="rounded=0;whiteSpace=wrap;html=1;fillColor=#262626;fontColor=#FFFFFF;strokeColor=none;" vertex="1" parent="1">
                    <mxGeometry x="20" y="60" width="40" height="50" as="geometry"/>
                </mxCell>
                <mxCell id="455" value="5" style="text;html=1;strokeColor=none;fillColor=none;align=center;verticalAlign=middle;whiteSpace=wrap;rounded=0;fontFamily=Klavika;fontSize=17;fontColor=#FFFFFF;" vertex="1" parent="1">
                    <mxGeometry x="27.5" y="70" width="25" height="30" as="geometry"/>
                </mxCell>
                <mxCell id="456" value="" style="endArrow=classic;html=1;dashed=1;strokeColor=#FFFFFF;fontColor=#FFFFFF;entryX=0.5;entryY=0;entryDx=0;entryDy=0;exitX=0.5;exitY=1;exitDx=0;exitDy=0;" edge="1" parent="1" source="454" target="459">
                    <mxGeometry width="50" height="50" relative="1" as="geometry">
                        <mxPoint x="450" y="50" as="sourcePoint"/>
                        <mxPoint x="450" y="360" as="targetPoint"/>
                    </mxGeometry>
                </mxCell>
                <mxCell id="457" value="" style="rounded=0;whiteSpace=wrap;html=1;fillColor=#262626;fontColor=#FFFFFF;strokeColor=none;" vertex="1" parent="1">
                    <mxGeometry x="65" y="60" width="40" height="50" as="geometry"/>
                </mxCell>
                <mxCell id="458" value="13" style="text;html=1;strokeColor=none;fillColor=none;align=center;verticalAlign=middle;whiteSpace=wrap;rounded=0;fontFamily=Klavika;fontSize=17;fontColor=#FFFFFF;" vertex="1" parent="1">
                    <mxGeometry x="72.5" y="70" width="25" height="30" as="geometry"/>
                </mxCell>
                <mxCell id="459" value="" style="ellipse;whiteSpace=wrap;html=1;fillColor=#4F1623;strokeColor=none;" vertex="1" parent="1">
                    <mxGeometry x="20" y="130" width="40" height="50" as="geometry"/>
                </mxCell>
                <mxCell id="460" value="0" style="text;html=1;strokeColor=none;fillColor=none;align=center;verticalAlign=middle;whiteSpace=wrap;rounded=0;fontFamily=Klavika;fontSize=17;fontColor=#FFFFFF;" vertex="1" parent="1">
                    <mxGeometry x="27.5" y="140" width="25" height="30" as="geometry"/>
                </mxCell>
                <mxCell id="461" value="" style="edgeStyle=segmentEdgeStyle;endArrow=classic;html=1;curved=0;rounded=1;endSize=8;startSize=8;entryX=1;entryY=0.5;entryDx=0;entryDy=0;exitX=0.5;exitY=1;exitDx=0;exitDy=0;strokeColor=#FFFFFF;fontColor=#FFFFFF;dashed=1;" edge="1" parent="1" source="457" target="459">
                    <mxGeometry width="50" height="50" relative="1" as="geometry">
                        <mxPoint x="270" y="260" as="sourcePoint"/>
                        <mxPoint x="320" y="210" as="targetPoint"/>
                        <Array as="points">
                            <mxPoint x="85" y="155"/>
                        </Array>
                    </mxGeometry>
                </mxCell>
                <mxCell id="462" value="" style="rounded=0;whiteSpace=wrap;html=1;fillColor=#262626;fontColor=#FFFFFF;strokeColor=none;" vertex="1" parent="1">
                    <mxGeometry x="110" y="60" width="40" height="50" as="geometry"/>
                </mxCell>
                <mxCell id="463" value="8" style="text;html=1;strokeColor=none;fillColor=none;align=center;verticalAlign=middle;whiteSpace=wrap;rounded=0;fontFamily=Klavika;fontSize=17;fontColor=#FFFFFF;" vertex="1" parent="1">
                    <mxGeometry x="117.5" y="70" width="25" height="30" as="geometry"/>
                </mxCell>
                <mxCell id="464" value="" style="endArrow=classic;html=1;dashed=1;strokeColor=#FFFFFF;fontColor=#FFFFFF;entryX=0.5;entryY=0;entryDx=0;entryDy=0;exitX=0.5;exitY=1;exitDx=0;exitDy=0;" edge="1" parent="1" source="462" target="467">
                    <mxGeometry width="50" height="50" relative="1" as="geometry">
                        <mxPoint x="540" y="50" as="sourcePoint"/>
                        <mxPoint x="540" y="360" as="targetPoint"/>
                    </mxGeometry>
                </mxCell>
                <mxCell id="465" value="" style="rounded=0;whiteSpace=wrap;html=1;fillColor=#262626;fontColor=#FFFFFF;strokeColor=none;" vertex="1" parent="1">
                    <mxGeometry x="155" y="60" width="40" height="50" as="geometry"/>
                </mxCell>
                <mxCell id="466" value="2" style="text;html=1;strokeColor=none;fillColor=none;align=center;verticalAlign=middle;whiteSpace=wrap;rounded=0;fontFamily=Klavika;fontSize=17;fontColor=#FFFFFF;" vertex="1" parent="1">
                    <mxGeometry x="162.5" y="70" width="25" height="30" as="geometry"/>
                </mxCell>
                <mxCell id="467" value="" style="ellipse;whiteSpace=wrap;html=1;fillColor=#4F1623;strokeColor=none;" vertex="1" parent="1">
                    <mxGeometry x="110" y="130" width="40" height="50" as="geometry"/>
                </mxCell>
                <mxCell id="468" value="1" style="text;html=1;strokeColor=none;fillColor=none;align=center;verticalAlign=middle;whiteSpace=wrap;rounded=0;fontFamily=Klavika;fontSize=17;fontColor=#FFFFFF;" vertex="1" parent="1">
                    <mxGeometry x="117.5" y="140" width="25" height="30" as="geometry"/>
                </mxCell>
                <mxCell id="469" value="" style="edgeStyle=segmentEdgeStyle;endArrow=classic;html=1;curved=0;rounded=1;endSize=8;startSize=8;entryX=1;entryY=0.5;entryDx=0;entryDy=0;exitX=0.5;exitY=1;exitDx=0;exitDy=0;strokeColor=#FFFFFF;fontColor=#FFFFFF;dashed=1;" edge="1" parent="1" source="465" target="467">
                    <mxGeometry width="50" height="50" relative="1" as="geometry">
                        <mxPoint x="360" y="260" as="sourcePoint"/>
                        <mxPoint x="410" y="210" as="targetPoint"/>
                        <Array as="points">
                            <mxPoint x="175" y="155"/>
                        </Array>
                    </mxGeometry>
                </mxCell>
                <mxCell id="470" value="" style="rounded=0;whiteSpace=wrap;html=1;fillColor=#262626;fontColor=#FFFFFF;strokeColor=none;" vertex="1" parent="1">
                    <mxGeometry x="200" y="60" width="40" height="50" as="geometry"/>
                </mxCell>
                <mxCell id="471" value="7" style="text;html=1;strokeColor=none;fillColor=none;align=center;verticalAlign=middle;whiteSpace=wrap;rounded=0;fontFamily=Klavika;fontSize=17;fontColor=#FFFFFF;" vertex="1" parent="1">
                    <mxGeometry x="207.5" y="70" width="25" height="30" as="geometry"/>
                </mxCell>
                <mxCell id="472" value="" style="endArrow=classic;html=1;dashed=1;strokeColor=#FFFFFF;fontColor=#FFFFFF;entryX=0.5;entryY=0;entryDx=0;entryDy=0;exitX=0.5;exitY=1;exitDx=0;exitDy=0;" edge="1" parent="1" source="470" target="475">
                    <mxGeometry width="50" height="50" relative="1" as="geometry">
                        <mxPoint x="630" y="50" as="sourcePoint"/>
                        <mxPoint x="630" y="360" as="targetPoint"/>
                    </mxGeometry>
                </mxCell>
                <mxCell id="473" value="" style="rounded=0;whiteSpace=wrap;html=1;fillColor=#262626;fontColor=#FFFFFF;strokeColor=none;" vertex="1" parent="1">
                    <mxGeometry x="245" y="60" width="40" height="50" as="geometry"/>
                </mxCell>
                <mxCell id="474" value="42" style="text;html=1;strokeColor=none;fillColor=none;align=center;verticalAlign=middle;whiteSpace=wrap;rounded=0;fontFamily=Klavika;fontSize=17;fontColor=#FFFFFF;" vertex="1" parent="1">
                    <mxGeometry x="252.5" y="70" width="25" height="30" as="geometry"/>
                </mxCell>
                <mxCell id="475" value="" style="ellipse;whiteSpace=wrap;html=1;fillColor=#4F1623;strokeColor=none;" vertex="1" parent="1">
                    <mxGeometry x="200" y="130" width="40" height="50" as="geometry"/>
                </mxCell>
                <mxCell id="476" value="2" style="text;html=1;strokeColor=none;fillColor=none;align=center;verticalAlign=middle;whiteSpace=wrap;rounded=0;fontFamily=Klavika;fontSize=17;fontColor=#FFFFFF;" vertex="1" parent="1">
                    <mxGeometry x="207.5" y="140" width="25" height="30" as="geometry"/>
                </mxCell>
                <mxCell id="477" value="" style="edgeStyle=segmentEdgeStyle;endArrow=classic;html=1;curved=0;rounded=1;endSize=8;startSize=8;entryX=1;entryY=0.5;entryDx=0;entryDy=0;exitX=0.5;exitY=1;exitDx=0;exitDy=0;strokeColor=#FFFFFF;fontColor=#FFFFFF;dashed=1;" edge="1" parent="1" source="473" target="475">
                    <mxGeometry width="50" height="50" relative="1" as="geometry">
                        <mxPoint x="450" y="260" as="sourcePoint"/>
                        <mxPoint x="500" y="210" as="targetPoint"/>
                        <Array as="points">
                            <mxPoint x="265" y="155"/>
                        </Array>
                    </mxGeometry>
                </mxCell>
                <mxCell id="478" value="" style="rounded=0;whiteSpace=wrap;html=1;fillColor=#262626;fontColor=#FFFFFF;strokeColor=none;" vertex="1" parent="1">
                    <mxGeometry x="290" y="60" width="40" height="50" as="geometry"/>
                </mxCell>
                <mxCell id="479" value="23" style="text;html=1;strokeColor=none;fillColor=none;align=center;verticalAlign=middle;whiteSpace=wrap;rounded=0;fontFamily=Klavika;fontSize=17;fontColor=#FFFFFF;" vertex="1" parent="1">
                    <mxGeometry x="297.5" y="70" width="25" height="30" as="geometry"/>
                </mxCell>
                <mxCell id="480" value="" style="endArrow=classic;html=1;dashed=1;strokeColor=#FFFFFF;fontColor=#FFFFFF;entryX=0.5;entryY=0;entryDx=0;entryDy=0;exitX=0.5;exitY=1;exitDx=0;exitDy=0;" edge="1" parent="1" source="478" target="483">
                    <mxGeometry width="50" height="50" relative="1" as="geometry">
                        <mxPoint x="720" y="50" as="sourcePoint"/>
                        <mxPoint x="720" y="360" as="targetPoint"/>
                    </mxGeometry>
                </mxCell>
                <mxCell id="481" value="" style="rounded=0;whiteSpace=wrap;html=1;fillColor=#262626;fontColor=#FFFFFF;strokeColor=none;" vertex="1" parent="1">
                    <mxGeometry x="335" y="60" width="40" height="50" as="geometry"/>
                </mxCell>
                <mxCell id="482" value="10" style="text;html=1;strokeColor=none;fillColor=none;align=center;verticalAlign=middle;whiteSpace=wrap;rounded=0;fontFamily=Klavika;fontSize=17;fontColor=#FFFFFF;" vertex="1" parent="1">
                    <mxGeometry x="342.5" y="70" width="25" height="30" as="geometry"/>
                </mxCell>
                <mxCell id="483" value="" style="ellipse;whiteSpace=wrap;html=1;fillColor=#4F1623;strokeColor=none;" vertex="1" parent="1">
                    <mxGeometry x="290" y="130" width="40" height="50" as="geometry"/>
                </mxCell>
                <mxCell id="484" value="3" style="text;html=1;strokeColor=none;fillColor=none;align=center;verticalAlign=middle;whiteSpace=wrap;rounded=0;fontFamily=Klavika;fontSize=17;fontColor=#FFFFFF;" vertex="1" parent="1">
                    <mxGeometry x="297.5" y="140" width="25" height="30" as="geometry"/>
                </mxCell>
                <mxCell id="485" value="" style="edgeStyle=segmentEdgeStyle;endArrow=classic;html=1;curved=0;rounded=1;endSize=8;startSize=8;entryX=1;entryY=0.5;entryDx=0;entryDy=0;exitX=0.5;exitY=1;exitDx=0;exitDy=0;strokeColor=#FFFFFF;fontColor=#FFFFFF;dashed=1;" edge="1" parent="1" source="481" target="483">
                    <mxGeometry width="50" height="50" relative="1" as="geometry">
                        <mxPoint x="540" y="260" as="sourcePoint"/>
                        <mxPoint x="590" y="210" as="targetPoint"/>
                        <Array as="points">
                            <mxPoint x="355" y="155"/>
                        </Array>
                    </mxGeometry>
                </mxCell>
                <mxCell id="486" value="" style="rounded=0;whiteSpace=wrap;html=1;fillColor=#C23555;fontColor=#FFFFFF;strokeColor=none;" vertex="1" parent="1">
                    <mxGeometry x="10" y="190" width="380" height="90" as="geometry"/>
                </mxCell>
                <mxCell id="487" value="&lt;font face=&quot;Klavika&quot; style=&quot;font-size: 17px;&quot;&gt;Shared&lt;/font&gt;" style="text;html=1;strokeColor=none;fillColor=none;align=center;verticalAlign=middle;whiteSpace=wrap;rounded=0;fontSize=17;fontColor=#FFFFFF;" vertex="1" parent="1">
                    <mxGeometry x="145" y="190" width="60" height="30" as="geometry"/>
                </mxCell>
                <mxCell id="488" value="" style="rounded=0;whiteSpace=wrap;html=1;fillColor=#262626;fontColor=#FFFFFF;strokeColor=none;" vertex="1" parent="1">
                    <mxGeometry x="20" y="220" width="40" height="50" as="geometry"/>
                </mxCell>
                <mxCell id="489" value="13" style="text;html=1;strokeColor=none;fillColor=none;align=center;verticalAlign=middle;whiteSpace=wrap;rounded=0;fontFamily=Klavika;fontSize=17;fontColor=#FFFFFF;" vertex="1" parent="1">
                    <mxGeometry x="27.5" y="230" width="25" height="30" as="geometry"/>
                </mxCell>
                <mxCell id="490" value="" style="endArrow=classic;html=1;dashed=1;strokeColor=#FFFFFF;fontColor=#FFFFFF;entryX=0.5;entryY=0;entryDx=0;entryDy=0;exitX=0.5;exitY=1;exitDx=0;exitDy=0;" edge="1" parent="1" source="488" target="493">
                    <mxGeometry width="50" height="50" relative="1" as="geometry">
                        <mxPoint x="450" y="210" as="sourcePoint"/>
                        <mxPoint x="450" y="520" as="targetPoint"/>
                    </mxGeometry>
                </mxCell>
                <mxCell id="491" value="" style="rounded=0;whiteSpace=wrap;html=1;fillColor=#262626;fontColor=#FFFFFF;strokeColor=none;" vertex="1" parent="1">
                    <mxGeometry x="65" y="220" width="40" height="50" as="geometry"/>
                </mxCell>
                <mxCell id="492" value="13" style="text;html=1;strokeColor=none;fillColor=none;align=center;verticalAlign=middle;whiteSpace=wrap;rounded=0;fontFamily=Klavika;fontSize=17;fontColor=#FFFFFF;" vertex="1" parent="1">
                    <mxGeometry x="72.5" y="230" width="25" height="30" as="geometry"/>
                </mxCell>
                <mxCell id="493" value="" style="ellipse;whiteSpace=wrap;html=1;fillColor=#4F1623;strokeColor=none;" vertex="1" parent="1">
                    <mxGeometry x="20" y="290" width="40" height="50" as="geometry"/>
                </mxCell>
                <mxCell id="494" value="0" style="text;html=1;strokeColor=none;fillColor=none;align=center;verticalAlign=middle;whiteSpace=wrap;rounded=0;fontFamily=Klavika;fontSize=17;fontColor=#FFFFFF;" vertex="1" parent="1">
                    <mxGeometry x="27.5" y="300" width="25" height="30" as="geometry"/>
                </mxCell>
                <mxCell id="495" value="" style="edgeStyle=segmentEdgeStyle;endArrow=classic;html=1;curved=0;rounded=1;endSize=8;startSize=8;entryX=1;entryY=0.5;entryDx=0;entryDy=0;strokeColor=#FFFFFF;fontColor=#FFFFFF;dashed=1;exitX=0.5;exitY=1;exitDx=0;exitDy=0;" edge="1" parent="1" source="496" target="493">
                    <mxGeometry width="50" height="50" relative="1" as="geometry">
                        <mxPoint x="270" y="420" as="sourcePoint"/>
                        <mxPoint x="320" y="370" as="targetPoint"/>
                        <Array as="points">
                            <mxPoint x="130" y="315"/>
                        </Array>
                    </mxGeometry>
                </mxCell>
                <mxCell id="496" value="" style="rounded=0;whiteSpace=wrap;html=1;fillColor=#262626;fontColor=#FFFFFF;strokeColor=none;" vertex="1" parent="1">
                    <mxGeometry x="110" y="220" width="40" height="50" as="geometry"/>
                </mxCell>
                <mxCell id="497" value="8" style="text;html=1;strokeColor=none;fillColor=none;align=center;verticalAlign=middle;whiteSpace=wrap;rounded=0;fontFamily=Klavika;fontSize=17;fontColor=#FFFFFF;" vertex="1" parent="1">
                    <mxGeometry x="117.5" y="230" width="25" height="30" as="geometry"/>
                </mxCell>
                <mxCell id="498" value="" style="rounded=0;whiteSpace=wrap;html=1;fillColor=#262626;fontColor=#FFFFFF;strokeColor=none;" vertex="1" parent="1">
                    <mxGeometry x="155" y="220" width="40" height="50" as="geometry"/>
                </mxCell>
                <mxCell id="499" value="2" style="text;html=1;strokeColor=none;fillColor=none;align=center;verticalAlign=middle;whiteSpace=wrap;rounded=0;fontFamily=Klavika;fontSize=17;fontColor=#FFFFFF;" vertex="1" parent="1">
                    <mxGeometry x="162.5" y="230" width="25" height="30" as="geometry"/>
                </mxCell>
                <mxCell id="500" value="" style="rounded=0;whiteSpace=wrap;html=1;fillColor=#262626;fontColor=#FFFFFF;strokeColor=none;" vertex="1" parent="1">
                    <mxGeometry x="200" y="220" width="40" height="50" as="geometry"/>
                </mxCell>
                <mxCell id="501" value="42" style="text;html=1;strokeColor=none;fillColor=none;align=center;verticalAlign=middle;whiteSpace=wrap;rounded=0;fontFamily=Klavika;fontSize=17;fontColor=#FFFFFF;" vertex="1" parent="1">
                    <mxGeometry x="207.5" y="230" width="25" height="30" as="geometry"/>
                </mxCell>
                <mxCell id="502" value="" style="endArrow=classic;html=1;dashed=1;strokeColor=#FFFFFF;fontColor=#FFFFFF;entryX=0.5;entryY=0;entryDx=0;entryDy=0;exitX=0.5;exitY=1;exitDx=0;exitDy=0;" edge="1" parent="1" source="500" target="505">
                    <mxGeometry width="50" height="50" relative="1" as="geometry">
                        <mxPoint x="630" y="210" as="sourcePoint"/>
                        <mxPoint x="630" y="520" as="targetPoint"/>
                    </mxGeometry>
                </mxCell>
                <mxCell id="503" value="" style="rounded=0;whiteSpace=wrap;html=1;fillColor=#262626;fontColor=#FFFFFF;strokeColor=none;" vertex="1" parent="1">
                    <mxGeometry x="245" y="220" width="40" height="50" as="geometry"/>
                </mxCell>
                <mxCell id="504" value="42" style="text;html=1;strokeColor=none;fillColor=none;align=center;verticalAlign=middle;whiteSpace=wrap;rounded=0;fontFamily=Klavika;fontSize=17;fontColor=#FFFFFF;" vertex="1" parent="1">
                    <mxGeometry x="252.5" y="230" width="25" height="30" as="geometry"/>
                </mxCell>
                <mxCell id="505" value="" style="ellipse;whiteSpace=wrap;html=1;fillColor=#4F1623;strokeColor=none;" vertex="1" parent="1">
                    <mxGeometry x="200" y="290" width="40" height="50" as="geometry"/>
                </mxCell>
                <mxCell id="506" value="1" style="text;html=1;strokeColor=none;fillColor=none;align=center;verticalAlign=middle;whiteSpace=wrap;rounded=0;fontFamily=Klavika;fontSize=17;fontColor=#FFFFFF;" vertex="1" parent="1">
                    <mxGeometry x="207.5" y="300" width="25" height="30" as="geometry"/>
                </mxCell>
                <mxCell id="507" value="" style="edgeStyle=segmentEdgeStyle;endArrow=classic;html=1;curved=0;rounded=1;endSize=8;startSize=8;entryX=1;entryY=0.5;entryDx=0;entryDy=0;exitX=0.5;exitY=1;exitDx=0;exitDy=0;strokeColor=#FFFFFF;fontColor=#FFFFFF;dashed=1;" edge="1" parent="1" source="508" target="505">
                    <mxGeometry width="50" height="50" relative="1" as="geometry">
                        <mxPoint x="450" y="420" as="sourcePoint"/>
                        <mxPoint x="500" y="370" as="targetPoint"/>
                        <Array as="points">
                            <mxPoint x="310" y="315"/>
                        </Array>
                    </mxGeometry>
                </mxCell>
                <mxCell id="508" value="" style="rounded=0;whiteSpace=wrap;html=1;fillColor=#262626;fontColor=#FFFFFF;strokeColor=none;" vertex="1" parent="1">
                    <mxGeometry x="290" y="220" width="40" height="50" as="geometry"/>
                </mxCell>
                <mxCell id="509" value="23" style="text;html=1;strokeColor=none;fillColor=none;align=center;verticalAlign=middle;whiteSpace=wrap;rounded=0;fontFamily=Klavika;fontSize=17;fontColor=#FFFFFF;" vertex="1" parent="1">
                    <mxGeometry x="297.5" y="230" width="25" height="30" as="geometry"/>
                </mxCell>
                <mxCell id="510" value="" style="rounded=0;whiteSpace=wrap;html=1;fillColor=#262626;fontColor=#FFFFFF;strokeColor=none;" vertex="1" parent="1">
                    <mxGeometry x="335" y="220" width="40" height="50" as="geometry"/>
                </mxCell>
                <mxCell id="511" value="10" style="text;html=1;strokeColor=none;fillColor=none;align=center;verticalAlign=middle;whiteSpace=wrap;rounded=0;fontFamily=Klavika;fontSize=17;fontColor=#FFFFFF;" vertex="1" parent="1">
                    <mxGeometry x="342.5" y="230" width="25" height="30" as="geometry"/>
                </mxCell>
                <mxCell id="512" value="" style="endArrow=classic;html=1;dashed=1;strokeColor=#FFFFFF;fontColor=#FFFFFF;entryX=0.5;entryY=0;entryDx=0;entryDy=0;exitX=0.5;exitY=1;exitDx=0;exitDy=0;" edge="1" parent="1" source="459" target="488">
                    <mxGeometry width="50" height="50" relative="1" as="geometry">
                        <mxPoint x="50" y="120" as="sourcePoint"/>
                        <mxPoint x="50" y="140" as="targetPoint"/>
                    </mxGeometry>
                </mxCell>
                <mxCell id="513" value="" style="endArrow=classic;html=1;dashed=1;strokeColor=#FFFFFF;fontColor=#FFFFFF;entryX=0.5;entryY=0;entryDx=0;entryDy=0;exitX=0.5;exitY=1;exitDx=0;exitDy=0;" edge="1" parent="1" source="467" target="496">
                    <mxGeometry width="50" height="50" relative="1" as="geometry">
                        <mxPoint x="50" y="190" as="sourcePoint"/>
                        <mxPoint x="50" y="230" as="targetPoint"/>
                    </mxGeometry>
                </mxCell>
                <mxCell id="514" value="" style="endArrow=classic;html=1;dashed=1;strokeColor=#FFFFFF;fontColor=#FFFFFF;entryX=0.5;entryY=0;entryDx=0;entryDy=0;exitX=0.5;exitY=1;exitDx=0;exitDy=0;" edge="1" parent="1" source="475" target="500">
                    <mxGeometry width="50" height="50" relative="1" as="geometry">
                        <mxPoint x="60" y="200" as="sourcePoint"/>
                        <mxPoint x="60" y="240" as="targetPoint"/>
                    </mxGeometry>
                </mxCell>
                <mxCell id="515" value="" style="endArrow=classic;html=1;dashed=1;strokeColor=#FFFFFF;fontColor=#FFFFFF;entryX=0.5;entryY=0;entryDx=0;entryDy=0;exitX=0.5;exitY=1;exitDx=0;exitDy=0;" edge="1" parent="1" source="483" target="508">
                    <mxGeometry width="50" height="50" relative="1" as="geometry">
                        <mxPoint x="70" y="210" as="sourcePoint"/>
                        <mxPoint x="70" y="250" as="targetPoint"/>
                    </mxGeometry>
                </mxCell>
                <mxCell id="516" value="" style="rounded=0;whiteSpace=wrap;html=1;fillColor=#C23555;fontColor=#FFFFFF;strokeColor=none;" vertex="1" parent="1">
                    <mxGeometry x="10" y="350" width="380" height="90" as="geometry"/>
                </mxCell>
                <mxCell id="517" value="&lt;font face=&quot;Klavika&quot; style=&quot;font-size: 17px;&quot;&gt;Shared&lt;/font&gt;" style="text;html=1;strokeColor=none;fillColor=none;align=center;verticalAlign=middle;whiteSpace=wrap;rounded=0;fontSize=17;fontColor=#FFFFFF;" vertex="1" parent="1">
                    <mxGeometry x="145" y="350" width="60" height="30" as="geometry"/>
                </mxCell>
                <mxCell id="518" value="" style="rounded=0;whiteSpace=wrap;html=1;fillColor=#262626;fontColor=#FFFFFF;strokeColor=none;" vertex="1" parent="1">
                    <mxGeometry x="20" y="380" width="40" height="50" as="geometry"/>
                </mxCell>
                <mxCell id="519" value="13" style="text;html=1;strokeColor=none;fillColor=none;align=center;verticalAlign=middle;whiteSpace=wrap;rounded=0;fontFamily=Klavika;fontSize=17;fontColor=#FFFFFF;" vertex="1" parent="1">
                    <mxGeometry x="27.5" y="390" width="25" height="30" as="geometry"/>
                </mxCell>
                <mxCell id="520" value="" style="endArrow=classic;html=1;dashed=1;strokeColor=#FFFFFF;fontColor=#FFFFFF;entryX=0.5;entryY=0;entryDx=0;entryDy=0;exitX=0.5;exitY=1;exitDx=0;exitDy=0;" edge="1" parent="1" source="518" target="523">
                    <mxGeometry width="50" height="50" relative="1" as="geometry">
                        <mxPoint x="450" y="370" as="sourcePoint"/>
                        <mxPoint x="450" y="680" as="targetPoint"/>
                    </mxGeometry>
                </mxCell>
                <mxCell id="521" value="" style="rounded=0;whiteSpace=wrap;html=1;fillColor=#262626;fontColor=#FFFFFF;strokeColor=none;" vertex="1" parent="1">
                    <mxGeometry x="65" y="380" width="40" height="50" as="geometry"/>
                </mxCell>
                <mxCell id="522" value="13" style="text;html=1;strokeColor=none;fillColor=none;align=center;verticalAlign=middle;whiteSpace=wrap;rounded=0;fontFamily=Klavika;fontSize=17;fontColor=#FFFFFF;" vertex="1" parent="1">
                    <mxGeometry x="72.5" y="390" width="25" height="30" as="geometry"/>
                </mxCell>
                <mxCell id="523" value="" style="ellipse;whiteSpace=wrap;html=1;fillColor=#4F1623;strokeColor=none;" vertex="1" parent="1">
                    <mxGeometry x="20" y="450" width="40" height="50" as="geometry"/>
                </mxCell>
                <mxCell id="524" value="0" style="text;html=1;strokeColor=none;fillColor=none;align=center;verticalAlign=middle;whiteSpace=wrap;rounded=0;fontFamily=Klavika;fontSize=17;fontColor=#FFFFFF;" vertex="1" parent="1">
                    <mxGeometry x="27.5" y="460" width="25" height="30" as="geometry"/>
                </mxCell>
                <mxCell id="525" value="" style="edgeStyle=segmentEdgeStyle;endArrow=classic;html=1;curved=0;rounded=1;endSize=8;startSize=8;entryX=1;entryY=0.5;entryDx=0;entryDy=0;strokeColor=#FFFFFF;fontColor=#FFFFFF;dashed=1;exitX=0.5;exitY=1;exitDx=0;exitDy=0;" edge="1" parent="1" source="530" target="523">
                    <mxGeometry width="50" height="50" relative="1" as="geometry">
                        <mxPoint x="270" y="580" as="sourcePoint"/>
                        <mxPoint x="320" y="530" as="targetPoint"/>
                        <Array as="points">
                            <mxPoint x="220" y="475"/>
                        </Array>
                    </mxGeometry>
                </mxCell>
                <mxCell id="526" value="" style="rounded=0;whiteSpace=wrap;html=1;fillColor=#262626;fontColor=#FFFFFF;strokeColor=none;" vertex="1" parent="1">
                    <mxGeometry x="110" y="380" width="40" height="50" as="geometry"/>
                </mxCell>
                <mxCell id="527" value="8" style="text;html=1;strokeColor=none;fillColor=none;align=center;verticalAlign=middle;whiteSpace=wrap;rounded=0;fontFamily=Klavika;fontSize=17;fontColor=#FFFFFF;" vertex="1" parent="1">
                    <mxGeometry x="117.5" y="390" width="25" height="30" as="geometry"/>
                </mxCell>
                <mxCell id="528" value="" style="rounded=0;whiteSpace=wrap;html=1;fillColor=#262626;fontColor=#FFFFFF;strokeColor=none;" vertex="1" parent="1">
                    <mxGeometry x="155" y="380" width="40" height="50" as="geometry"/>
                </mxCell>
                <mxCell id="529" value="2" style="text;html=1;strokeColor=none;fillColor=none;align=center;verticalAlign=middle;whiteSpace=wrap;rounded=0;fontFamily=Klavika;fontSize=17;fontColor=#FFFFFF;" vertex="1" parent="1">
                    <mxGeometry x="162.5" y="390" width="25" height="30" as="geometry"/>
                </mxCell>
                <mxCell id="530" value="" style="rounded=0;whiteSpace=wrap;html=1;fillColor=#262626;fontColor=#FFFFFF;strokeColor=none;" vertex="1" parent="1">
                    <mxGeometry x="200" y="380" width="40" height="50" as="geometry"/>
                </mxCell>
                <mxCell id="531" value="42" style="text;html=1;strokeColor=none;fillColor=none;align=center;verticalAlign=middle;whiteSpace=wrap;rounded=0;fontFamily=Klavika;fontSize=17;fontColor=#FFFFFF;" vertex="1" parent="1">
                    <mxGeometry x="207.5" y="390" width="25" height="30" as="geometry"/>
                </mxCell>
                <mxCell id="532" value="" style="rounded=0;whiteSpace=wrap;html=1;fillColor=#262626;fontColor=#FFFFFF;strokeColor=none;" vertex="1" parent="1">
                    <mxGeometry x="245" y="380" width="40" height="50" as="geometry"/>
                </mxCell>
                <mxCell id="533" value="42" style="text;html=1;strokeColor=none;fillColor=none;align=center;verticalAlign=middle;whiteSpace=wrap;rounded=0;fontFamily=Klavika;fontSize=17;fontColor=#FFFFFF;" vertex="1" parent="1">
                    <mxGeometry x="252.5" y="390" width="25" height="30" as="geometry"/>
                </mxCell>
                <mxCell id="534" value="" style="rounded=0;whiteSpace=wrap;html=1;fillColor=#262626;fontColor=#FFFFFF;strokeColor=none;" vertex="1" parent="1">
                    <mxGeometry x="290" y="380" width="40" height="50" as="geometry"/>
                </mxCell>
                <mxCell id="535" value="23" style="text;html=1;strokeColor=none;fillColor=none;align=center;verticalAlign=middle;whiteSpace=wrap;rounded=0;fontFamily=Klavika;fontSize=17;fontColor=#FFFFFF;" vertex="1" parent="1">
                    <mxGeometry x="297.5" y="390" width="25" height="30" as="geometry"/>
                </mxCell>
                <mxCell id="536" value="" style="rounded=0;whiteSpace=wrap;html=1;fillColor=#262626;fontColor=#FFFFFF;strokeColor=none;" vertex="1" parent="1">
                    <mxGeometry x="335" y="380" width="40" height="50" as="geometry"/>
                </mxCell>
                <mxCell id="537" value="10" style="text;html=1;strokeColor=none;fillColor=none;align=center;verticalAlign=middle;whiteSpace=wrap;rounded=0;fontFamily=Klavika;fontSize=17;fontColor=#FFFFFF;" vertex="1" parent="1">
                    <mxGeometry x="342.5" y="390" width="25" height="30" as="geometry"/>
                </mxCell>
                <mxCell id="538" value="" style="endArrow=classic;html=1;dashed=1;strokeColor=#FFFFFF;fontColor=#FFFFFF;entryX=0.5;entryY=0;entryDx=0;entryDy=0;exitX=0.5;exitY=1;exitDx=0;exitDy=0;" edge="1" parent="1" source="493" target="518">
                    <mxGeometry width="50" height="50" relative="1" as="geometry">
                        <mxPoint x="50" y="190" as="sourcePoint"/>
                        <mxPoint x="50" y="230" as="targetPoint"/>
                    </mxGeometry>
                </mxCell>
                <mxCell id="539" value="" style="endArrow=classic;html=1;dashed=1;strokeColor=#FFFFFF;fontColor=#FFFFFF;entryX=0.5;entryY=0;entryDx=0;entryDy=0;exitX=0.5;exitY=1;exitDx=0;exitDy=0;" edge="1" parent="1" source="505" target="530">
                    <mxGeometry width="50" height="50" relative="1" as="geometry">
                        <mxPoint x="60" y="200" as="sourcePoint"/>
                        <mxPoint x="60" y="240" as="targetPoint"/>
                    </mxGeometry>
                </mxCell>
                <mxCell id="540" value="" style="rounded=0;whiteSpace=wrap;html=1;fillColor=#C23555;fontColor=#FFFFFF;strokeColor=none;" vertex="1" parent="1">
                    <mxGeometry x="10" y="510" width="380" height="90" as="geometry"/>
                </mxCell>
                <mxCell id="541" value="&lt;font face=&quot;Klavika&quot; style=&quot;font-size: 17px;&quot;&gt;Shared&lt;/font&gt;" style="text;html=1;strokeColor=none;fillColor=none;align=center;verticalAlign=middle;whiteSpace=wrap;rounded=0;fontSize=17;fontColor=#FFFFFF;" vertex="1" parent="1">
                    <mxGeometry x="145" y="510" width="60" height="30" as="geometry"/>
                </mxCell>
                <mxCell id="542" value="" style="rounded=0;whiteSpace=wrap;html=1;fillColor=#262626;fontColor=#FFFFFF;strokeColor=none;" vertex="1" parent="1">
                    <mxGeometry x="20" y="540" width="40" height="50" as="geometry"/>
                </mxCell>
                <mxCell id="543" value="42" style="text;html=1;strokeColor=none;fillColor=none;align=center;verticalAlign=middle;whiteSpace=wrap;rounded=0;fontFamily=Klavika;fontSize=17;fontColor=#FFFFFF;" vertex="1" parent="1">
                    <mxGeometry x="27.5" y="550" width="25" height="30" as="geometry"/>
                </mxCell>
                <mxCell id="544" value="" style="endArrow=classic;html=1;dashed=1;strokeColor=#FFFFFF;fontColor=#FFFFFF;exitX=0.5;exitY=1;exitDx=0;exitDy=0;" edge="1" parent="1" source="523">
                    <mxGeometry width="50" height="50" relative="1" as="geometry">
                        <mxPoint x="450" y="530" as="sourcePoint"/>
                        <mxPoint x="40" y="540" as="targetPoint"/>
                    </mxGeometry>
                </mxCell>
                <mxCell id="545" value="" style="rounded=0;whiteSpace=wrap;html=1;fillColor=#262626;fontColor=#FFFFFF;strokeColor=none;" vertex="1" parent="1">
                    <mxGeometry x="65" y="540" width="40" height="50" as="geometry"/>
                </mxCell>
                <mxCell id="546" value="13" style="text;html=1;strokeColor=none;fillColor=none;align=center;verticalAlign=middle;whiteSpace=wrap;rounded=0;fontFamily=Klavika;fontSize=17;fontColor=#FFFFFF;" vertex="1" parent="1">
                    <mxGeometry x="72.5" y="550" width="25" height="30" as="geometry"/>
                </mxCell>
                <mxCell id="547" value="" style="rounded=0;whiteSpace=wrap;html=1;fillColor=#262626;fontColor=#FFFFFF;strokeColor=none;" vertex="1" parent="1">
                    <mxGeometry x="110" y="540" width="40" height="50" as="geometry"/>
                </mxCell>
                <mxCell id="548" value="8" style="text;html=1;strokeColor=none;fillColor=none;align=center;verticalAlign=middle;whiteSpace=wrap;rounded=0;fontFamily=Klavika;fontSize=17;fontColor=#FFFFFF;" vertex="1" parent="1">
                    <mxGeometry x="117.5" y="550" width="25" height="30" as="geometry"/>
                </mxCell>
                <mxCell id="549" value="" style="rounded=0;whiteSpace=wrap;html=1;fillColor=#262626;fontColor=#FFFFFF;strokeColor=none;" vertex="1" parent="1">
                    <mxGeometry x="155" y="540" width="40" height="50" as="geometry"/>
                </mxCell>
                <mxCell id="550" value="2" style="text;html=1;strokeColor=none;fillColor=none;align=center;verticalAlign=middle;whiteSpace=wrap;rounded=0;fontFamily=Klavika;fontSize=17;fontColor=#FFFFFF;" vertex="1" parent="1">
                    <mxGeometry x="162.5" y="550" width="25" height="30" as="geometry"/>
                </mxCell>
                <mxCell id="551" value="" style="rounded=0;whiteSpace=wrap;html=1;fillColor=#262626;fontColor=#FFFFFF;strokeColor=none;" vertex="1" parent="1">
                    <mxGeometry x="200" y="540" width="40" height="50" as="geometry"/>
                </mxCell>
                <mxCell id="552" value="42" style="text;html=1;strokeColor=none;fillColor=none;align=center;verticalAlign=middle;whiteSpace=wrap;rounded=0;fontFamily=Klavika;fontSize=17;fontColor=#FFFFFF;" vertex="1" parent="1">
                    <mxGeometry x="207.5" y="550" width="25" height="30" as="geometry"/>
                </mxCell>
                <mxCell id="553" value="" style="rounded=0;whiteSpace=wrap;html=1;fillColor=#262626;fontColor=#FFFFFF;strokeColor=none;" vertex="1" parent="1">
                    <mxGeometry x="245" y="540" width="40" height="50" as="geometry"/>
                </mxCell>
                <mxCell id="554" value="42" style="text;html=1;strokeColor=none;fillColor=none;align=center;verticalAlign=middle;whiteSpace=wrap;rounded=0;fontFamily=Klavika;fontSize=17;fontColor=#FFFFFF;" vertex="1" parent="1">
                    <mxGeometry x="252.5" y="550" width="25" height="30" as="geometry"/>
                </mxCell>
                <mxCell id="555" value="" style="rounded=0;whiteSpace=wrap;html=1;fillColor=#262626;fontColor=#FFFFFF;strokeColor=none;" vertex="1" parent="1">
                    <mxGeometry x="290" y="540" width="40" height="50" as="geometry"/>
                </mxCell>
                <mxCell id="556" value="23" style="text;html=1;strokeColor=none;fillColor=none;align=center;verticalAlign=middle;whiteSpace=wrap;rounded=0;fontFamily=Klavika;fontSize=17;fontColor=#FFFFFF;" vertex="1" parent="1">
                    <mxGeometry x="297.5" y="550" width="25" height="30" as="geometry"/>
                </mxCell>
                <mxCell id="557" value="" style="rounded=0;whiteSpace=wrap;html=1;fillColor=#262626;fontColor=#FFFFFF;strokeColor=none;" vertex="1" parent="1">
                    <mxGeometry x="335" y="540" width="40" height="50" as="geometry"/>
                </mxCell>
                <mxCell id="558" value="10" style="text;html=1;strokeColor=none;fillColor=none;align=center;verticalAlign=middle;whiteSpace=wrap;rounded=0;fontFamily=Klavika;fontSize=17;fontColor=#FFFFFF;" vertex="1" parent="1">
                    <mxGeometry x="342.5" y="550" width="25" height="30" as="geometry"/>
                </mxCell>
                <mxCell id="559" value="Thread IDs" style="text;strokeColor=none;fillColor=none;align=center;verticalAlign=middle;rounded=0;fontFamily=klavika;fontSize=17;fontColor=#FFFFFF;whiteSpace=wrap;rotation=0;" vertex="1" parent="1">
                    <mxGeometry x="400" y="140" width="62.5" height="30" as="geometry"/>
                </mxCell>
                <mxCell id="560" value="Data snapshot" style="text;strokeColor=none;fillColor=none;align=center;verticalAlign=middle;rounded=0;fontFamily=klavika;fontSize=17;fontColor=#FFFFFF;whiteSpace=wrap;rotation=0;" vertex="1" parent="1">
                    <mxGeometry x="400" y="50" width="62.5" height="50" as="geometry"/>
                </mxCell>
                <mxCell id="561" value="Thread IDs" style="text;strokeColor=none;fillColor=none;align=center;verticalAlign=middle;rounded=0;fontFamily=klavika;fontSize=17;fontColor=#FFFFFF;whiteSpace=wrap;rotation=0;" vertex="1" parent="1">
                    <mxGeometry x="400" y="300" width="62.5" height="30" as="geometry"/>
                </mxCell>
                <mxCell id="562" value="Data snapshot" style="text;strokeColor=none;fillColor=none;align=center;verticalAlign=middle;rounded=0;fontFamily=klavika;fontSize=17;fontColor=#FFFFFF;whiteSpace=wrap;rotation=0;" vertex="1" parent="1">
                    <mxGeometry x="400" y="210" width="62.5" height="50" as="geometry"/>
                </mxCell>
                <mxCell id="563" value="Thread IDs" style="text;strokeColor=none;fillColor=none;align=center;verticalAlign=middle;rounded=0;fontFamily=klavika;fontSize=17;fontColor=#FFFFFF;whiteSpace=wrap;rotation=0;" vertex="1" parent="1">
                    <mxGeometry x="400" y="460" width="62.5" height="30" as="geometry"/>
                </mxCell>
                <mxCell id="564" value="Data snapshot" style="text;strokeColor=none;fillColor=none;align=center;verticalAlign=middle;rounded=0;fontFamily=klavika;fontSize=17;fontColor=#FFFFFF;whiteSpace=wrap;rotation=0;" vertex="1" parent="1">
                    <mxGeometry x="400" y="370" width="62.5" height="50" as="geometry"/>
                </mxCell>
                <mxCell id="565" value="Data snapshot" style="text;strokeColor=none;fillColor=none;align=center;verticalAlign=middle;rounded=0;fontFamily=klavika;fontSize=17;fontColor=#FFFFFF;whiteSpace=wrap;rotation=0;" vertex="1" parent="1">
                    <mxGeometry x="400" y="530" width="62.5" height="50" as="geometry"/>
                </mxCell>
            </root>
        </mxGraphModel>
    </diagram>
</mxfile>